{"title":"48 hours-The Blue River Murder+Extra-Fatal0ty","uid":9729339,"size":264400472,"categoryP":"video","categoryS":"tv_shows","magnet":"?xt=urn:btih:f0d0da3c001afb9307df3d60f8d9bc33a1a20a4d&amp;dn=48+hours-The+Blue+River+Murder%2BExtra-Fatal0ty&amp;tr=udp%3A%2F%2Ftracker.openbittorrent.com%3A80&amp;tr=udp%3A%2F%2Fopen.demonii.com%3A1337&amp;tr=udp%3A%2F%2Ftracker.coppersurfer.tk%3A6969&amp;tr=udp%3A%2F%2Fexodus.desync.com%3A6969","seeders":1,"leechers":1,"uploader":"gate4","files":3,"time":1394344902,"description":"Format : MPEG-4\n Format profile : Base Media\n Codec ID : isom\n File size : 228 MiB\n Duration : 41mn 57s\n Overall bit rate mode : Variable\n Overall bit rate : 758 Kbps\n Writing application : Lavf54.59.106\n\n Video\n ID : 1\n Format : AVC\n Format/Info : Advanced Video Codec\n Format profile : &lt;a class=&quot;__cf_email__&quot; href=&quot;/cdn-cgi/l/email-protection&quot; data-cfemail=&quot;a8e5c9c1c6e8e49b8699&quot;&gt;[email&amp;#160;protected]&lt;/a&gt;&lt;script cf-hash='f9e31' type=&quot;text/javascript&quot;&gt;\n/* &lt;![CDATA[ */!function(){try{var t=&quot;currentScript&quot;in document?document.currentScript:function(){for(var t=document.getElementsByTagName(&quot;script&quot;),e=t.length;e--;)if(t[e].getAttribute(&quot;cf-hash&quot;))return t[e]}();if(t&amp;&amp;t.previousSibling){var e,r,n,i,c=t.previousSibling,a=c.getAttribute(&quot;data-cfemail&quot;);if(a){for(e=&quot;&quot;,r=parseInt(a.substr(0,2),16),n=2;a.length-n;n+=2)i=parseInt(a.substr(n,2),16)^r,e+=String.fromCharCode(i);e=document.createTextNode(e),c.parentNode.replaceChild(e,c)}}}catch(u){}}();/* ]]&gt; */&lt;/script&gt;\n Format settings, CABAC : Yes\n Format settings, ReFrames : 5 frames\n Format settings, GOP : M=1, N=90\n Codec ID : avc1\n Codec ID/Info : Advanced Video Coding\n Duration : 41mn 57s\n Bit rate : 700 Kbps\n Width : 640 pixels\n Height : 360 pixels\n Display aspect ratio : 16:9\n Frame rate mode : Constant\n Frame rate : 29.970 fps\n Color space : YUV\n Chroma subsampling : 4:2:0\n Bit depth : 8 bits\n Scan type : Progressive\n Bits/(Pixel*Frame) : 0.101\n Stream size : 208 MiB (91%)\n Writing library : x264 core 129\n Language : EnglishAudio\n ID : 2\n Format : AAC\n Format/Info : Advanced Audio Codec\n Format profile : LC\n Codec ID : 40\n Duration : 41mn 57s\n Duration_LastFrame : -32ms\n Bit rate mode : Variable\n Bit rate : 30.9 Kbps\n Maximum bit rate : 875 Kbps\n Channel(s) : 2 channels\n Channel positions : Front: L R\n Sampling rate : 22.05 KHz\n Compression mode : Lossy\n Stream size : 9.26 MiB (4%)\n Language : English ","torrent":{"xt":"urn:btih:f0d0da3c001afb9307df3d60f8d9bc33a1a20a4d","amp;dn":"48+hours-The+Blue+River+Murder%2BExtra-Fatal0ty","amp;tr":["udp%3A%2F%2Ftracker.openbittorrent.com%3A80","udp%3A%2F%2Fopen.demonii.com%3A1337","udp%3A%2F%2Ftracker.coppersurfer.tk%3A6969","udp%3A%2F%2Fexodus.desync.com%3A6969"],"infoHash":"f0d0da3c001afb9307df3d60f8d9bc33a1a20a4d","infoHashBuffer":{"type":"Buffer","data":[240,208,218,60,0,26,251,147,7,223,61,96,248,217,188,51,161,162,10,77]},"announce":[],"urlList":[]}}